<svg xmlns="http://www.w3.org/2000/svg" width="128" height="128" viewBox="0 0 128 128">
  <defs>
    <linearGradient id="g" x1="0" y1="0" x2="1" y2="1">
      <stop offset="0" stop-color="#22c55e"/>
      <stop offset="1" stop-color="#16a34a"/>
    </linearGradient>
  </defs>
  <rect x="12" y="12" width="104" height="104" rx="26" fill="url(#g)"/>
  <path d="M42 66c0-19 14-34 33-34 12 0 22 6 28 15l-14 8c-3-5-8-8-14-8-10 0-18 8-18 19s8 19 18 19c6 0 11-3 14-8l14 8c-6 9-16 15-28 15-19 0-33-15-33-34z" fill="#fff"/>
  <path d="M54 66l10-10 10 10-10 10-10-10z" fill="#0b7a3b" opacity="0.25"/>
</svg>
